<svg width="20" height="20" viewBox="0 0 20 20" fill="none" xmlns="http://www.w3.org/2000/svg">
<path d="M16.3366 6.4462L10.4803 12.21C10.3525 12.3364 10.18 12.4073 10.0003 12.4073C9.82056 12.4073 9.64808 12.3364 9.5203 12.21L3.66405 6.44746C3.53548 6.32111 3.36243 6.25032 3.18218 6.25032C3.00192 6.25032 2.82887 6.32111 2.7003 6.44746C2.63699 6.50918 2.58667 6.58295 2.55232 6.66442C2.51797 6.74589 2.50027 6.83341 2.50027 6.92183C2.50027 7.01025 2.51797 7.09777 2.55232 7.17924C2.58667 7.26071 2.63699 7.33448 2.7003 7.3962L8.5553 13.1587C8.94095 13.5374 9.45983 13.7495 10.0003 13.7495C10.5408 13.7495 11.0596 13.5374 11.4453 13.1587L17.3003 7.3962C17.3638 7.33446 17.4143 7.26062 17.4487 7.17903C17.4832 7.09744 17.501 7.00977 17.501 6.9212C17.501 6.83264 17.4832 6.74497 17.4487 6.66338C17.4143 6.58179 17.3638 6.50795 17.3003 6.4462C17.1717 6.31986 16.9987 6.24906 16.8184 6.24906C16.6382 6.24906 16.4651 6.31986 16.3366 6.4462Z" fill="white"/>
</svg>
