<svg width="20" height="20" viewBox="0 0 20 20" fill="none" xmlns="http://www.w3.org/2000/svg">
<path d="M8.00171 17.5217V11.46H5.68171C5.56125 11.46 5.44573 11.4122 5.36056 11.327C5.27539 11.2418 5.22754 11.1263 5.22754 11.0059V8.60837C5.22754 8.48792 5.27539 8.3724 5.36056 8.28723C5.44573 8.20206 5.56125 8.15421 5.68171 8.15421H7.99254V5.83337C7.93726 5.283 8.00315 4.7272 8.18558 4.205C8.36801 3.68281 8.66256 3.20689 9.04853 2.81067C9.43451 2.41445 9.90255 2.10754 10.4198 1.91149C10.937 1.71545 11.4909 1.63503 12.0425 1.67587H13.9759C14.0975 1.67563 14.2143 1.72321 14.3011 1.80833C14.388 1.89345 14.4379 2.00929 14.44 2.13087V4.16087C14.4374 4.28224 14.3874 4.39775 14.3006 4.48264C14.2138 4.56754 14.0973 4.61507 13.9759 4.61504H12.7675C11.4625 4.61504 11.2117 5.23337 11.2117 6.14254V8.15337H14.3142C14.3787 8.15124 14.4429 8.16317 14.5023 8.18835C14.5617 8.21353 14.6149 8.25135 14.6582 8.29917C14.7015 8.34699 14.7338 8.40368 14.753 8.46528C14.7722 8.52688 14.7777 8.59192 14.7692 8.65587L14.4884 11.0625C14.4743 11.1728 14.4203 11.274 14.3366 11.3471C14.2529 11.4202 14.1453 11.4601 14.0342 11.4592H11.2309V17.5209C11.2322 17.6279 11.2121 17.7341 11.1717 17.8333C11.1314 17.9324 11.0716 18.0225 10.9958 18.0981C10.9201 18.1738 10.83 18.2335 10.7308 18.2737C10.6316 18.314 10.5254 18.334 10.4184 18.3325H8.80421C8.69798 18.3328 8.59277 18.3119 8.4947 18.271C8.39664 18.2302 8.30767 18.1703 8.23299 18.0948C8.1583 18.0192 8.09939 17.9296 8.05968 17.8311C8.01998 17.7325 8.00027 17.6279 8.00171 17.5217Z" fill="#FFF5E1"/>
</svg>
