<svg width="20" height="20" viewBox="0 0 20 20" fill="none" xmlns="http://www.w3.org/2000/svg">
<path fill-rule="evenodd" clip-rule="evenodd" d="M7.85734 7.47425H10.9523V9.01591C11.3982 8.12925 12.5415 7.33258 14.259 7.33258C17.5515 7.33258 18.3332 9.09758 18.3332 12.3359V18.3334H14.9998V13.0734C14.9998 11.2292 14.554 10.1892 13.419 10.1892C11.8448 10.1892 11.1907 11.3101 11.1907 13.0726V18.3334H7.85734V7.47425ZM2.1415 18.1917H5.47484V7.33258H2.1415V18.1917ZM5.95234 3.79175C5.95246 4.07114 5.89705 4.34778 5.78933 4.60557C5.6816 4.86336 5.52371 5.09718 5.32484 5.29342C4.92184 5.69393 4.37635 5.91813 3.80817 5.91675C3.241 5.91637 2.69676 5.69275 2.29317 5.29425C2.09501 5.09734 1.93766 4.86327 1.83012 4.60544C1.72259 4.34761 1.66699 4.0711 1.6665 3.79175C1.6665 3.22758 1.8915 2.68758 2.294 2.28925C2.69724 1.89021 3.2417 1.6665 3.809 1.66675C4.37734 1.66675 4.92234 1.89091 5.32484 2.28925C5.7265 2.68758 5.95234 3.22758 5.95234 3.79175Z" fill="#FFF5E1"/>
</svg>
