<svg width="17" height="17" viewBox="0 0 17 17" fill="none" xmlns="http://www.w3.org/2000/svg">
<path d="M1.62734 11.3798L5.30781 9.73056L5.31796 9.72587C5.50903 9.64415 5.71746 9.61135 5.92439 9.63045C6.13133 9.64954 6.33023 9.71993 6.50312 9.83524C6.52349 9.84867 6.54305 9.86328 6.56171 9.87899L8.46327 11.5001C9.66796 10.9149 10.9117 9.68055 11.4969 8.49149L9.87343 6.56102C9.85781 6.54149 9.84296 6.52196 9.8289 6.50087C9.71606 6.32845 9.64761 6.13081 9.62961 5.92553C9.61162 5.72026 9.64466 5.51372 9.72577 5.3243V5.31493L11.3797 1.62821C11.4869 1.38076 11.6713 1.17463 11.9053 1.04058C12.1393 0.906541 12.4104 0.851774 12.6781 0.884461C13.7367 1.02376 14.7084 1.54366 15.4118 2.34704C16.1151 3.15042 16.5019 4.18234 16.5 5.25009C16.5 11.4532 11.4531 16.5001 5.24999 16.5001C4.18225 16.502 3.15032 16.1152 2.34694 15.4119C1.54356 14.7085 1.02367 13.7368 0.884367 12.6782C0.851622 12.4106 0.906274 12.1396 1.04017 11.9056C1.17407 11.6716 1.38003 11.4871 1.62734 11.3798ZM5.24999 15.2501C7.90127 15.2472 10.4431 14.1927 12.3179 12.318C14.1926 10.4432 15.2471 7.90136 15.25 5.25009C15.2529 4.48719 14.9781 3.7493 14.4768 3.17423C13.9754 2.59916 13.2819 2.22623 12.5258 2.12509C12.5261 2.1282 12.5261 2.13134 12.5258 2.13446L10.8851 5.80634L12.5 7.73915C12.5164 7.75798 12.5313 7.7781 12.5445 7.7993C12.6621 7.97971 12.7311 8.18743 12.7447 8.40232C12.7584 8.61722 12.7164 8.83201 12.6226 9.02587C11.9148 10.4735 10.4562 11.9212 8.99296 12.6282C8.79768 12.7211 8.58165 12.7617 8.36597 12.7461C8.1503 12.7304 7.94237 12.6592 7.76249 12.5391C7.74239 12.5257 7.72309 12.5111 7.70468 12.4954L5.80546 10.8751L2.13359 12.5196H2.12499C2.2249 13.2769 2.59728 13.9718 3.17245 14.4743C3.74763 14.9769 4.4862 15.2527 5.24999 15.2501Z" fill="white"/>
</svg>
